<svg width="162" height="140" viewBox="0 0 162 140" fill="none" xmlns="http://www.w3.org/2000/svg">
    <path opacity="0.1" d="M74.5967 23.422C74.5082 22.7009 75.3941 22.2877 75.8896 22.8191L98.7188 47.3004C98.9404 47.538 99.2898 47.6059 99.5843 47.4686L129.922 33.3219C130.58 33.0149 131.247 33.7298 130.895 34.3652L114.666 63.6422C114.509 63.9264 114.552 64.2797 114.774 64.5173L137.603 88.9987C138.099 89.53 137.625 90.385 136.911 90.2464L104.052 83.8592C103.734 83.7972 103.411 83.9477 103.253 84.2318L87.0249 113.509C86.6727 114.144 85.7131 113.958 85.6245 113.237L81.5451 80.0122C81.5055 79.6897 81.2627 79.4294 80.9438 79.3674L48.0848 72.9802C47.3717 72.8416 47.2525 71.8713 47.911 71.5643L78.2487 57.4176C78.5432 57.2802 78.7157 56.9689 78.6761 56.6464L74.5967 23.422Z" fill="#FEFEFE"/>
    <path opacity="0.1" d="M117.782 106.053C117.694 105.332 118.58 104.919 119.075 105.45L125.057 111.865C125.279 112.103 125.628 112.171 125.923 112.033L133.872 108.326C134.531 108.019 135.198 108.734 134.845 109.37L130.593 117.041C130.435 117.326 130.479 117.679 130.7 117.917L136.683 124.332C137.178 124.863 136.704 125.718 135.991 125.579L127.381 123.906C127.062 123.844 126.739 123.994 126.581 124.278L122.329 131.95C121.977 132.585 121.017 132.399 120.929 131.678L119.86 122.972C119.82 122.649 119.577 122.389 119.258 122.327L110.648 120.653C109.935 120.515 109.816 119.544 110.474 119.237L118.424 115.53C118.718 115.393 118.891 115.082 118.851 114.759L117.782 106.053Z" fill="#FEFEFE"/>
    <path opacity="0.1" d="M14.7822 41.053C14.6937 40.3318 15.5797 39.9187 16.0752 40.4501L22.0573 46.8651C22.2789 47.1028 22.6283 47.1707 22.9228 47.0334L30.8725 43.3264C31.531 43.0193 32.1976 43.7343 31.8454 44.3697L27.5929 52.0415C27.4354 52.3256 27.4787 52.6789 27.7003 52.9166L33.6825 59.3316C34.178 59.863 33.7041 60.718 32.9909 60.5794L24.3805 58.9057C24.0616 58.8437 23.739 58.9941 23.5815 59.2783L19.3289 66.95C18.9767 67.5855 18.0171 67.3989 17.9286 66.6778L16.8596 57.9717C16.82 57.6492 16.5772 57.3889 16.2583 57.3269L7.64793 55.6532C6.93474 55.5146 6.8156 54.5443 7.47407 54.2372L15.4238 50.5302C15.7182 50.3929 15.8908 50.0816 15.8512 49.7591L14.7822 41.053Z" fill="#FEFEFE"/>
</svg>
