<svg width="162" height="140" viewBox="0 0 162 140" fill="none" xmlns="http://www.w3.org/2000/svg">
    <path opacity="0.1" d="M87.2959 23.422C87.3844 22.7009 86.4985 22.2877 86.003 22.8191L63.1738 47.3004C62.9522 47.538 62.6028 47.6059 62.3083 47.4686L31.9706 33.3219C31.3121 33.0149 30.6454 33.7298 30.9977 34.3652L47.2261 63.6422C47.3837 63.9264 47.3403 64.2797 47.1187 64.5173L24.2895 88.9987C23.794 89.53 24.2679 90.385 24.9811 90.2464L57.8401 83.8592C58.159 83.7972 58.4816 83.9477 58.6392 84.2318L74.8677 113.509C75.2199 114.144 76.1795 113.958 76.268 113.237L80.3475 80.0122C80.3871 79.6897 80.6298 79.4294 80.9488 79.3674L113.808 72.9802C114.521 72.8416 114.64 71.8713 113.982 71.5643L83.6439 57.4176C83.3494 57.2802 83.1768 56.9689 83.2164 56.6464L87.2959 23.422Z" fill="#FEFEFE"/>
    <path opacity="0.1" d="M44.1103 106.053C44.1989 105.332 43.3129 104.919 42.8174 105.45L36.8353 111.865C36.6137 112.103 36.2643 112.171 35.9698 112.033L28.0201 108.326C27.3616 108.019 26.6949 108.734 27.0472 109.37L31.2997 117.041C31.4572 117.326 31.4138 117.679 31.1922 117.917L25.2101 124.332C24.7146 124.863 25.1885 125.718 25.9017 125.579L34.5121 123.906C34.831 123.844 35.1536 123.994 35.3111 124.278L39.5636 131.95C39.9159 132.585 40.8755 132.399 40.964 131.678L42.033 122.972C42.0726 122.649 42.3153 122.389 42.6343 122.327L51.2446 120.653C51.9578 120.515 52.077 119.544 51.4185 119.237L43.4688 115.53C43.1743 115.393 43.0018 115.082 43.0414 114.759L44.1103 106.053Z" fill="#FEFEFE"/>
    <path opacity="0.1" d="M147.11 41.053C147.199 40.3318 146.313 39.9187 145.817 40.4501L139.835 46.8651C139.614 47.1028 139.264 47.1707 138.97 47.0334L131.02 43.3264C130.362 43.0193 129.695 43.7343 130.047 44.3697L134.3 52.0415C134.457 52.3256 134.414 52.6789 134.192 52.9166L128.21 59.3316C127.715 59.863 128.189 60.718 128.902 60.5794L137.512 58.9057C137.831 58.8437 138.154 58.9941 138.311 59.2783L142.564 66.95C142.916 67.5855 143.875 67.3989 143.964 66.6778L145.033 57.9717C145.073 57.6492 145.315 57.3889 145.634 57.3269L154.245 55.6532C154.958 55.5146 155.077 54.5443 154.419 54.2372L146.469 50.5302C146.174 50.3929 146.002 50.0816 146.041 49.7591L147.11 41.053Z" fill="#FEFEFE"/>
</svg>
