<svg width="107" height="72" viewBox="0 0 107 72" fill="none" xmlns="http://www.w3.org/2000/svg">
<path d="M39.5491 26.8542C39.2796 26.4791 39.0561 26.0737 38.8785 25.6378C37.4504 22.1272 37.4995 18.7681 39.0257 15.5605C40.7133 12.012 43.9451 9.47869 47.8233 8.73174C55.127 7.32724 62.2296 13.0607 62.2538 20.5544C62.2613 22.7611 61.7087 24.8592 60.596 26.8486C60.5801 26.8767 60.556 26.8993 60.5269 26.913C60.4979 26.9267 60.4653 26.9308 60.4339 26.9249L59.2194 26.6884C59.1449 26.6735 59.1275 26.6337 59.1673 26.5692C62.5723 20.9847 60.6742 13.912 54.7936 11.0247C50.0101 8.67585 44.3326 10.2033 41.2293 14.4503C38.627 18.01 38.6811 22.8009 40.9238 26.5133C40.9342 26.5308 40.9402 26.5506 40.9414 26.5709C40.9425 26.5913 40.9388 26.6117 40.9304 26.6304C40.922 26.6492 40.9093 26.6657 40.8932 26.6787C40.8772 26.6917 40.8583 26.7008 40.8381 26.7051L39.7447 26.9305C39.6627 26.9479 39.5975 26.9225 39.5491 26.8542Z" fill="#FF8000"/>
<path d="M45.6923 24.179C46.541 24.179 47.229 23.4909 47.229 22.6422C47.229 21.7935 46.541 21.1055 45.6923 21.1055C44.8435 21.1055 44.1555 21.7935 44.1555 22.6422C44.1555 23.4909 44.8435 24.179 45.6923 24.179Z" fill="#FF8000"/>
<path d="M54.4266 24.179C55.2754 24.179 55.9634 23.4909 55.9634 22.6422C55.9634 21.7935 55.2754 21.1055 54.4266 21.1055C53.5779 21.1055 52.8899 21.7935 52.8899 22.6422C52.8899 23.4909 53.5779 24.179 54.4266 24.179Z" fill="#FF8000"/>
<path d="M35.4938 29.9794C40.3052 27.7293 44.8577 27.0196 50.0025 28.6196C50.0634 28.6383 50.1236 28.6376 50.1832 28.6178C55.0952 26.9916 60.0687 27.7106 64.6361 30.013C64.6944 30.0415 64.7236 30.0887 64.7236 30.1545V32.4066C64.7236 32.4201 64.7206 32.4335 64.7148 32.4458C64.7089 32.458 64.7005 32.4688 64.6899 32.4774C64.6794 32.486 64.6671 32.4921 64.6539 32.4953C64.6407 32.4985 64.627 32.4987 64.6137 32.496L63.3787 32.2389C63.3507 32.2329 63.3256 32.2176 63.3076 32.1956C63.2896 32.1735 63.2799 32.1461 63.28 32.1178V31.0766C63.28 31.0195 63.2634 30.9636 63.2323 30.9157C63.2013 30.8677 63.157 30.8298 63.1049 30.8065C59.1671 29.035 55.3578 28.6066 51.0792 29.8285C50.8333 29.8993 50.7203 30.0384 50.7402 30.2458C50.7513 30.3613 50.7569 30.424 50.7569 30.4339C50.7495 33.5484 50.7501 36.6629 50.7588 39.7773C50.7588 39.8494 50.7228 39.8854 50.6507 39.8854H49.4735C49.3953 39.8854 49.3562 39.8469 49.3562 39.7699V30.0614C49.356 30.0205 49.3432 29.9807 49.3195 29.9476C49.2958 29.9146 49.2623 29.8898 49.2239 29.877C45.0887 28.5395 40.9236 29.0294 36.9393 30.8586C36.9064 30.8736 36.8786 30.8978 36.8591 30.9282C36.8396 30.9586 36.8293 30.9939 36.8294 31.03V32.2017C36.8294 32.2141 36.8269 32.2265 36.822 32.2379C36.8172 32.2494 36.8101 32.2597 36.8012 32.2683C36.7923 32.2768 36.7818 32.2834 36.7703 32.2877C36.7588 32.2919 36.7465 32.2937 36.7344 32.2929C36.3419 32.2718 35.9713 32.3519 35.6223 32.5332C35.5976 32.546 35.5701 32.5522 35.5423 32.5513C35.5146 32.5503 35.4875 32.5423 35.4638 32.5279C35.44 32.5135 35.4204 32.4932 35.4067 32.469C35.393 32.4449 35.3858 32.4176 35.3857 32.3898V30.1489C35.3857 30.0695 35.4218 30.013 35.4938 29.9794Z" fill="#FF8000"/>
<path d="M40.2571 36.7599C40.2571 37.5864 39.9288 38.379 39.3443 38.9635C38.7599 39.5479 37.9672 39.8762 37.1407 39.8762C36.3142 39.8762 35.5216 39.5479 34.9372 38.9635C34.3527 38.379 34.0244 37.5864 34.0244 36.7599C34.0244 35.9334 34.3527 35.1407 34.9372 34.5563C35.5216 33.9719 36.3142 33.6436 37.1407 33.6436C37.9672 33.6436 38.7599 33.9719 39.3443 34.5563C39.9288 35.1407 40.2571 35.9334 40.2571 36.7599ZM38.8675 36.7375C38.8675 36.2801 38.6858 35.8413 38.3623 35.5179C38.0388 35.1944 37.6001 35.0127 37.1426 35.0127C36.6851 35.0127 36.2464 35.1944 35.9229 35.5179C35.5995 35.8413 35.4177 36.2801 35.4177 36.7375C35.4177 37.195 35.5995 37.6337 35.9229 37.9572C36.2464 38.2807 36.6851 38.4624 37.1426 38.4624C37.6001 38.4624 38.0388 38.2807 38.3623 37.9572C38.6858 37.6337 38.8675 37.195 38.8675 36.7375Z" fill="#FF8000"/>
<path d="M66.0945 36.7599C66.0945 37.5864 65.7662 38.379 65.1817 38.9635C64.5973 39.5479 63.8047 39.8762 62.9782 39.8762C62.1516 39.8762 61.359 39.5479 60.7746 38.9635C60.1901 38.379 59.8618 37.5864 59.8618 36.7599C59.8618 35.9334 60.1901 35.1407 60.7746 34.5563C61.359 33.9719 62.1516 33.6436 62.9782 33.6436C63.8047 33.6436 64.5973 33.9719 65.1817 34.5563C65.7662 35.1407 66.0945 35.9334 66.0945 36.7599ZM64.7105 36.745C64.7105 36.286 64.5282 35.8459 64.2036 35.5214C63.8791 35.1968 63.439 35.0145 62.98 35.0145C62.5211 35.0145 62.0809 35.1968 61.7564 35.5214C61.4319 35.8459 61.2495 36.286 61.2495 36.745C61.2495 37.2039 61.4319 37.6441 61.7564 37.9686C62.0809 38.2931 62.5211 38.4755 62.98 38.4755C63.439 38.4755 63.8791 38.2931 64.2036 37.9686C64.5282 37.6441 64.7105 37.2039 64.7105 36.745Z" fill="#FF8000"/>
<path d="M12.508 58.0115C12.549 58.0115 12.5695 58.032 12.5695 58.073C12.5633 59.0565 12.5657 60.0531 12.5769 61.0627C12.59 62.1002 13.9833 62.5193 14.5514 61.6904C14.9388 61.1278 14.7582 59.2037 14.7544 58.4772C14.7532 58.4238 14.7364 58.3725 14.706 58.33L9.96352 51.8049C9.92844 51.7565 9.90953 51.6978 9.9095 51.6373C9.91882 50.2831 9.67852 48.2583 10.1274 47.0233C11.5971 42.9831 17.1126 44.0262 17.4498 48.2341C17.4833 48.6501 17.4802 49.6268 17.4405 51.1641C17.4392 51.22 17.4107 51.248 17.3548 51.248H14.8588C14.7979 51.248 14.7669 51.2176 14.7656 51.1567C14.7457 50.1546 14.7445 49.1605 14.7619 48.1745C14.7787 47.2208 13.3984 46.783 12.8079 47.6082C12.4037 48.1726 12.5471 50.013 12.5918 50.7171C12.5954 50.7779 12.6167 50.8374 12.6533 50.8885L17.3995 57.4564C17.438 57.5098 17.4572 57.5694 17.4572 57.6352C17.4572 59.0379 17.6361 60.977 17.2654 62.1691C16.2204 65.5295 11.3419 65.7567 10.1386 62.3833C9.74372 61.2787 9.89833 59.4141 9.91882 58.1102C9.92006 58.0444 9.95359 58.0115 10.0194 58.0115H12.508Z" fill="#FF8000"/>
<path d="M94.8923 59.0172C94.9332 59.0173 94.9537 59.0379 94.9535 59.0789C94.9433 60.0624 94.9418 61.0589 94.949 62.0685C94.9579 63.1061 96.3495 63.5308 96.9209 62.7042C97.3106 62.1432 97.1376 60.2183 97.1368 59.4918C97.1358 59.4384 97.1192 59.387 97.089 59.3445L92.3727 52.8004C92.3378 52.7518 92.3191 52.6931 92.3193 52.6326C92.3341 51.2784 92.1019 49.2527 92.5557 48.0195C94.0416 43.9852 99.5529 45.0504 99.8732 49.2596C99.905 49.6757 99.898 50.6524 99.8521 52.1896C99.8507 52.2455 99.822 52.2733 99.7661 52.2731L97.2701 52.2631C97.2092 52.2628 97.1783 52.2323 97.1773 52.1714C97.1615 51.1692 97.1642 50.1751 97.1855 49.1892C97.2061 48.2356 95.8276 47.7923 95.2338 48.6151C94.8274 49.1779 94.9634 51.0188 95.0053 51.7231C95.0087 51.784 95.0297 51.8435 95.0661 51.8947L99.786 58.4817C99.8242 58.5352 99.8432 58.5949 99.843 58.6607C99.8374 60.0633 100.008 62.0031 99.633 63.1938C98.5745 66.5499 93.6952 66.7576 92.5054 63.3794C92.1149 62.2733 92.277 60.4093 92.3027 59.1055C92.3042 59.0397 92.3379 59.0069 92.4037 59.0072L94.8923 59.0172Z" fill="#FF8000"/>
<path d="M61.2312 64.5422V44.9035C61.2312 44.8935 61.2332 44.8836 61.237 44.8743C61.2409 44.865 61.2465 44.8566 61.2536 44.8495C61.2607 44.8424 61.2691 44.8368 61.2783 44.833C61.2876 44.8291 61.2975 44.8271 61.3076 44.8271H63.7645C63.7745 44.8271 63.7845 44.8291 63.7937 44.833C63.803 44.8368 63.8114 44.8424 63.8185 44.8495C63.8256 44.8566 63.8312 44.865 63.8351 44.8743C63.8389 44.8836 63.8409 44.8935 63.8409 44.9035L63.8371 61.9828C63.8371 62.0031 63.8452 62.0225 63.8595 62.0368C63.8738 62.0511 63.8933 62.0592 63.9135 62.0592L67.5738 62.048C67.594 62.048 67.6134 62.0561 67.6278 62.0704C67.6421 62.0847 67.6501 62.1041 67.6501 62.1244L67.6706 64.5347C67.6706 64.555 67.6626 64.5744 67.6483 64.5887C67.6339 64.6031 67.6145 64.6111 67.5943 64.6111L61.3076 64.6186C61.2975 64.6186 61.2876 64.6166 61.2783 64.6127C61.2691 64.6089 61.2607 64.6033 61.2536 64.5962C61.2465 64.5891 61.2409 64.5807 61.237 64.5714C61.2332 64.5621 61.2312 64.5522 61.2312 64.5422Z" fill="#FF8000"/>
<path d="M33.054 54.3143L33.0614 64.5276C33.0614 64.5504 33.0524 64.5722 33.0363 64.5882C33.0203 64.6043 32.9985 64.6133 32.9757 64.6133H30.489C30.4663 64.6133 30.4445 64.6043 30.4284 64.5882C30.4123 64.5722 30.4033 64.5504 30.4033 64.5276L30.4052 45.0082C30.4052 44.9855 30.4142 44.9637 30.4303 44.9476C30.4463 44.9315 30.4681 44.9225 30.4909 44.9225L32.9757 44.9169C32.9985 44.9169 33.0203 44.9259 33.0363 44.942C33.0524 44.9581 33.0614 44.9799 33.0614 45.0026L33.054 51.5352C33.054 51.5579 33.063 51.5797 33.0791 51.5957C33.0951 51.6118 33.1169 51.6208 33.1397 51.6208H35.3004C35.3231 51.6208 35.3449 51.6118 35.361 51.5957C35.3771 51.5797 35.3861 51.5579 35.3861 51.5352V45.0007C35.3861 44.978 35.3951 44.9562 35.4112 44.9401C35.4273 44.9241 35.4491 44.915 35.4718 44.915H37.9101C37.9328 44.915 37.9546 44.9241 37.9707 44.9401C37.9867 44.9562 37.9958 44.978 37.9958 45.0007V64.5276C37.9958 64.5504 37.9867 64.5722 37.9707 64.5882C37.9546 64.6043 37.9328 64.6133 37.9101 64.6133H35.4718C35.4491 64.6133 35.4273 64.6043 35.4112 64.5882C35.3951 64.5722 35.3861 64.5504 35.3861 64.5276V54.3143C35.3861 54.2916 35.3771 54.2698 35.361 54.2537C35.3449 54.2377 35.3231 54.2286 35.3004 54.2286H33.1397C33.1169 54.2286 33.0951 54.2377 33.0791 54.2537C33.063 54.2698 33.054 54.2916 33.054 54.3143Z" fill="#FF8000"/>
<path d="M48.2511 61.0458C48.2527 61.515 48.1619 61.9799 47.9839 62.4139C47.8059 62.848 47.5441 63.2428 47.2135 63.5757C46.8829 63.9086 46.49 64.1732 46.0571 64.3542C45.6243 64.5353 45.1601 64.6293 44.6909 64.6309L44.4078 64.6319C43.9386 64.6336 43.4737 64.5428 43.0396 64.3647C42.6055 64.1867 42.2108 63.9249 41.8778 63.5943C41.5449 63.2637 41.2804 62.8708 41.0993 62.438C40.9183 62.0051 40.8242 61.5409 40.8226 61.0717L40.7788 48.532C40.7772 48.0628 40.868 47.5979 41.046 47.1638C41.224 46.7297 41.4858 46.3349 41.8164 46.002C42.147 45.6691 42.54 45.4046 42.9728 45.2235C43.4056 45.0425 43.8699 44.9484 44.339 44.9468L44.6222 44.9458C45.0913 44.9442 45.5562 45.035 45.9903 45.213C46.4244 45.391 46.8192 45.6528 47.1521 45.9834C47.485 46.314 47.7495 46.7069 47.9306 47.1398C48.1117 47.5726 48.2057 48.0369 48.2073 48.506L48.2511 61.0458ZM45.5842 48.5152C45.5842 48.2455 45.477 47.9868 45.2863 47.7961C45.0955 47.6053 44.8369 47.4982 44.5671 47.4982H44.4963C44.2266 47.4982 43.9679 47.6053 43.7772 47.7961C43.5864 47.9868 43.4793 48.2455 43.4793 48.5152V60.9843C43.4793 61.254 43.5864 61.5127 43.7772 61.7034C43.9679 61.8942 44.2266 62.0013 44.4963 62.0013H44.5671C44.8369 62.0013 45.0955 61.8942 45.2863 61.7034C45.477 61.5127 45.5842 61.254 45.5842 60.9843V48.5152Z" fill="#FF8000"/>
<path d="M58.4258 61.0779C58.4258 62.0215 58.051 62.9265 57.3838 63.5937C56.7166 64.2609 55.8116 64.6357 54.868 64.6357H54.5849C53.6413 64.6357 52.7364 64.2609 52.0692 63.5937C51.4019 62.9265 51.0271 62.0215 51.0271 61.0779V48.5046C51.0271 47.561 51.4019 46.656 52.0692 45.9888C52.7364 45.3216 53.6413 44.9468 54.5849 44.9468H54.868C55.8116 44.9468 56.7166 45.3216 57.3838 45.9888C58.051 46.656 58.4258 47.561 58.4258 48.5046V61.0779ZM55.8273 48.5716C55.8273 48.295 55.7174 48.0297 55.5218 47.834C55.3262 47.6384 55.0609 47.5285 54.7842 47.5285H54.7209C54.4442 47.5285 54.1789 47.6384 53.9833 47.834C53.7877 48.0297 53.6778 48.295 53.6778 48.5716V60.955C53.6778 61.2317 53.7877 61.497 53.9833 61.6926C54.1789 61.8882 54.4442 61.9981 54.7209 61.9981H54.7842C55.0609 61.9981 55.3262 61.8882 55.5218 61.6926C55.7174 61.497 55.8273 61.2317 55.8273 60.955V48.5716Z" fill="#FF8000"/>
<path d="M73.5512 57.8907L72.6608 64.535C72.6577 64.5569 72.6467 64.5769 72.6299 64.5913C72.6131 64.6056 72.5916 64.6135 72.5695 64.6132H70.0884C70.0754 64.6131 70.0626 64.6102 70.0508 64.6047C70.039 64.5992 70.0285 64.5912 70.02 64.5814C70.0115 64.5715 70.0053 64.5599 70.0017 64.5474C69.998 64.5349 69.9971 64.5218 69.999 64.5089L72.9588 45.0006C72.962 44.9791 72.9727 44.9593 72.9891 44.945C73.0055 44.9306 73.0265 44.9226 73.0483 44.9224L76.4626 44.9131C76.4841 44.9132 76.5049 44.921 76.5213 44.935C76.5376 44.9489 76.5485 44.9682 76.552 44.9895L79.972 64.5071C79.9741 64.5201 79.9735 64.5334 79.97 64.5461C79.9665 64.5588 79.9603 64.5707 79.9518 64.5808C79.9433 64.5908 79.9327 64.599 79.9207 64.6046C79.9088 64.6102 79.8958 64.6131 79.8826 64.6132H77.407C77.3852 64.613 77.3642 64.605 77.3478 64.5906C77.3315 64.5763 77.3207 64.5566 77.3176 64.535L76.349 57.9C76.3459 57.8784 76.3352 57.8587 76.3188 57.8443C76.3024 57.83 76.2814 57.822 76.2596 57.8217L73.6425 57.8106C73.6201 57.8104 73.5984 57.8185 73.5816 57.8332C73.5647 57.848 73.5539 57.8684 73.5512 57.8907ZM74.8309 48.5603L73.9331 55.078C73.9206 55.1636 73.9579 55.2065 74.0448 55.2065H75.7641C75.7877 55.2064 75.8111 55.2013 75.8326 55.1915C75.8541 55.1817 75.8732 55.1674 75.8887 55.1496C75.9043 55.1318 75.9158 55.1109 75.9226 55.0882C75.9294 55.0656 75.9312 55.0418 75.928 55.0183L75.0078 48.7484C75.0016 48.7025 74.9861 48.6596 74.9613 48.6199L74.9166 48.5417C74.9115 48.5335 74.904 48.5271 74.8952 48.5234C74.8863 48.5197 74.8765 48.5188 74.8672 48.5208C74.8578 48.5229 74.8493 48.5277 74.8428 48.5348C74.8363 48.5419 74.8321 48.5508 74.8309 48.5603Z" fill="#FF8000"/>
<path d="M27.2627 62.5065C25.6048 65.8631 20.5159 64.9523 20.2663 61.1635C20.2203 60.4705 20.2005 59.8931 20.2067 59.4311C20.2551 56.1689 20.257 52.9067 20.2123 49.6444C20.1986 48.6112 20.2756 47.8587 20.4432 47.3868C21.1324 45.4365 23.3584 44.4232 25.3292 45.2484C27.2235 46.0382 27.7619 47.737 27.6445 49.6388C27.6396 49.7183 27.5973 49.758 27.5179 49.758H25.0945C25.0814 49.758 25.0685 49.7554 25.0565 49.7503C25.0445 49.7452 25.0337 49.7378 25.0246 49.7284C25.0156 49.719 25.0085 49.7078 25.0039 49.6957C24.9992 49.6835 24.9971 49.6705 24.9976 49.6574C25.0181 49.0968 25.0777 48.4467 24.7648 47.9922C24.3196 47.3477 23.2243 47.5097 22.9523 48.2269C22.8915 48.3871 22.8611 48.6746 22.8611 49.0893C22.8586 53.0383 22.8579 56.9866 22.8592 60.9344C22.8592 62.0315 24.4015 62.3836 24.8877 61.3591C25.1205 60.8729 24.9864 59.8652 25.0125 59.2859C25.0135 59.2562 25.026 59.228 25.0475 59.2072C25.069 59.1864 25.0978 59.1745 25.128 59.1741L27.421 59.1443C27.5626 59.1418 27.6371 59.2113 27.6445 59.3529C27.6985 60.3774 27.7079 61.6049 27.2627 62.5065Z" fill="#FF8000"/>
<path d="M86.1898 45.023C90.0177 45.0956 89.7104 49.5028 89.5316 52.0119C89.5092 52.3248 89.3527 52.6005 89.2559 52.9097C89.2463 52.938 89.2445 52.9684 89.2507 52.9978C89.257 53.0273 89.271 53.0548 89.2913 53.0774C90.001 53.8709 90.1966 54.5973 90.1966 55.7262C90.1953 57.374 90.1959 59.0219 90.1984 60.6698C90.204 65.4794 86.1675 64.6374 82.9208 64.6076C82.8351 64.6064 82.7922 64.5629 82.7922 64.4772V45.1031C82.7922 45.0797 82.8014 45.0572 82.8178 45.0405C82.8341 45.0238 82.8564 45.0141 82.8798 45.0136C83.9701 44.9987 85.0734 45.0018 86.1898 45.023ZM85.3963 47.7388L85.4038 51.9188C85.4038 51.9464 85.4148 51.9729 85.4343 51.9925C85.4539 52.0121 85.4804 52.0231 85.5081 52.0231L86.2345 52.0212C86.33 52.021 86.4244 51.9993 86.5124 51.9574C86.6005 51.9156 86.6804 51.8543 86.7477 51.7771C86.815 51.7 86.8683 51.6085 86.9046 51.5078C86.9409 51.4071 86.9594 51.2993 86.9591 51.1904L86.9554 48.4597C86.9549 48.2399 86.8779 48.0292 86.7413 47.8741C86.6047 47.719 86.4197 47.6322 86.2271 47.6326L85.5006 47.6345C85.473 47.6345 85.4464 47.6455 85.4269 47.665C85.4073 47.6846 85.3963 47.7111 85.3963 47.7388ZM85.4447 54.7147V61.8936C85.4447 61.9168 85.454 61.9391 85.4704 61.9555C85.4868 61.9719 85.5091 61.9812 85.5323 61.9812H86.7673C86.8749 61.9812 86.9815 61.9583 87.0809 61.9138C87.1804 61.8694 87.2707 61.8042 87.3468 61.722C87.4229 61.6399 87.4833 61.5423 87.5245 61.435C87.5657 61.3276 87.5869 61.2126 87.5869 61.0964V55.5119C87.5869 55.3958 87.5657 55.2807 87.5245 55.1733C87.4833 55.066 87.4229 54.9685 87.3468 54.8863C87.2707 54.8041 87.1804 54.739 87.0809 54.6945C86.9815 54.65 86.8749 54.6272 86.7673 54.6272H85.5323C85.5091 54.6272 85.4868 54.6364 85.4704 54.6528C85.454 54.6692 85.4447 54.6915 85.4447 54.7147Z" fill="#FF8000"/>
</svg>