<svg width="48" height="48" viewBox="0 0 24 24" fill="none" xmlns="http://www.w3.org/2000/svg">
    <path fill-rule="evenodd" clip-rule="evenodd"
          d="M12 2.75C12.9681 2.75 13.9001 2.89847 14.7753 3.17334C15.1704 3.29746 15.5914 3.07772 15.7155 2.68254C15.8397 2.28736 15.6199 1.86638 15.2247 1.74227C14.2058 1.42224 13.1223 1.25 12 1.25C6.06294 1.25 1.25 6.06294 1.25 12C1.25 17.9371 6.06294 22.75 12 22.75C17.9371 22.75 22.75 17.9371 22.75 12C22.75 8.99296 21.5144 6.27316 19.525 4.32299C19.2292 4.03302 18.7544 4.03774 18.4644 4.33353C18.1745 4.62932 18.1792 5.10417 18.475 5.39414C20.1884 7.07382 21.25 9.41225 21.25 12C21.25 17.1086 17.1086 21.25 12 21.25C6.89137 21.25 2.75 17.1086 2.75 12C2.75 6.89137 6.89137 2.75 12 2.75Z"
          fill="currentColor"/>
    <path fill-rule="evenodd" clip-rule="evenodd"
          d="M12 5.25C12.4142 5.25 12.75 5.58579 12.75 6V18C12.75 18.4142 12.4142 18.75 12 18.75C11.5858 18.75 11.25 18.4142 11.25 18V6C11.25 5.58579 11.5858 5.25 12 5.25Z"
          fill="currentColor"/>
    <path fill-rule="evenodd" clip-rule="evenodd"
          d="M5.25 12C5.25 11.5858 5.58579 11.25 6 11.25H18C18.4142 11.25 18.75 11.5858 18.75 12C18.75 12.4142 18.4142 12.75 18 12.75H6C5.58579 12.75 5.25 12.4142 5.25 12Z"
          fill="currentColor"/>
</svg>
