<svg width="42" height="42" viewBox="0 0 42 42" fill="none" xmlns="http://www.w3.org/2000/svg">
<path d="M21 0C32.5979 0 42 9.40202 42 21C42 32.598 32.5979 42 21 42C9.40201 42 0 32.598 0 21C0 9.40202 9.40201 0 21 0ZM21 3.5C11.335 3.5 3.5 11.335 3.5 21C3.5 30.665 11.335 38.5 21 38.5C30.6649 38.5 38.5 30.665 38.5 21C38.5 11.335 30.6649 3.5 21 3.5ZM18.3733 24.6485L28.4209 14.5739C29.1034 13.8896 30.2115 13.8881 30.8958 14.5706C31.5041 15.1773 31.5729 16.1202 31.1013 16.8029L30.8991 17.0455L19.6141 28.3608C19.0068 28.9696 18.0629 29.0379 17.3801 28.5651L17.1375 28.3624L11.0126 22.2374C10.3291 21.554 10.3291 20.446 11.0126 19.7626C11.62 19.1551 12.563 19.0876 13.2451 19.5601L13.4874 19.7626L18.3733 24.6485Z" fill="#05FF00"/>
</svg>
