<svg width="24" height="24" viewBox="0 0 24 24" fill="none" xmlns="http://www.w3.org/2000/svg">
<path fill-rule="evenodd" clip-rule="evenodd" d="M5 5.25C4.0335 5.25 3.25 6.0335 3.25 7V13C3.25 13.4142 2.91421 13.75 2.5 13.75C2.08579 13.75 1.75 13.4142 1.75 13V7C1.75 5.20507 3.20507 3.75 5 3.75H15C15.4142 3.75 15.75 4.08579 15.75 4.5C15.75 4.91421 15.4142 5.25 15 5.25H5ZM18.5 9.75C18.9142 9.75 19.25 10.0858 19.25 10.5V18C19.25 19.7949 17.7949 21.25 16 21.25H5C3.20507 21.25 1.75 19.7949 1.75 18V17C1.75 16.5858 2.08579 16.25 2.5 16.25C2.91421 16.25 3.25 16.5858 3.25 17V18C3.25 18.9665 4.0335 19.75 5 19.75H16C16.9665 19.75 17.75 18.9665 17.75 18V10.5C17.75 10.0858 18.0858 9.75 18.5 9.75Z" fill="#FEFEFE"/>
<path fill-rule="evenodd" clip-rule="evenodd" d="M22.0303 2.96967C22.3232 3.26256 22.3232 3.73744 22.0303 4.03033L10.5303 15.5303C10.2374 15.8232 9.76256 15.8232 9.46967 15.5303L5.46967 11.5303C5.17678 11.2374 5.17678 10.7626 5.46967 10.4697C5.76256 10.1768 6.23744 10.1768 6.53033 10.4697L10 13.9393L20.9697 2.96967C21.2626 2.67678 21.7374 2.67678 22.0303 2.96967Z" fill="#FEFEFE"/>
</svg>
