<svg viewBox="0 0 25 25" fill="none" xmlns="http://www.w3.org/2000/svg">
<path fill-rule="evenodd" clip-rule="evenodd" d="M19.6132 0.51332C19.9628 0.163691 20.5297 0.163691 20.8793 0.51332L24.4604 4.09444C24.8101 4.44407 24.8101 5.01093 24.4604 5.36056L13.7171 16.1039C13.5801 16.2409 13.4024 16.3298 13.2106 16.3571L9.03264 16.954C8.75368 16.9939 8.47223 16.9 8.27297 16.7008C8.07371 16.5015 7.9799 16.2201 8.01975 15.9411L8.6166 11.7631C8.644 11.5714 8.73285 11.3937 8.86983 11.2567L19.6132 0.51332ZM10.347 12.3118L9.96113 15.0126L12.662 14.6268L22.5613 4.7275L20.2462 2.4125L10.347 12.3118Z" fill="currentColor"/>
<path fill-rule="evenodd" clip-rule="evenodd" d="M4.1315 5.62284C2.97778 5.62284 2.04251 6.55811 2.04251 7.71182V14.8741C2.04251 15.3685 1.64168 15.7693 1.14723 15.7693C0.652784 15.7693 0.251953 15.3685 0.251953 14.8741V7.71182C0.251953 5.56921 1.98889 3.83228 4.1315 3.83228H13.0843C13.5788 3.83228 13.9796 4.23311 13.9796 4.72756C13.9796 5.22201 13.5788 5.62284 13.0843 5.62284H4.1315ZM20.2465 10.9945C20.741 10.9945 21.1418 11.3953 21.1418 11.8898V20.8426C21.1418 22.9852 19.4049 24.7221 17.2623 24.7221H4.1315C1.98889 24.7221 0.251953 22.9852 0.251953 20.8426V19.6489C0.251953 19.1544 0.652784 18.7536 1.14723 18.7536C1.64168 18.7536 2.04251 19.1544 2.04251 19.6489V20.8426C2.04251 21.9963 2.97778 22.9316 4.1315 22.9316H17.2623C18.416 22.9316 19.3513 21.9963 19.3513 20.8426V11.8898C19.3513 11.3953 19.7521 10.9945 20.2465 10.9945Z" fill="currentColor"/>
</svg>
