<svg width="24" height="24" viewBox="0 0 36 36" fill="none" xmlns="http://www.w3.org/2000/svg">
    <path fill-rule="evenodd" clip-rule="evenodd"
          d="M27.9495 1.2828C28.4376 0.794648 29.2291 0.794648 29.7172 1.2828L34.7172 6.2828C35.2054 6.77096 35.2054 7.56242 34.7172 8.05057L19.7172 23.0506C19.526 23.2418 19.2779 23.3659 19.0101 23.4041L13.1768 24.2375C12.7873 24.2931 12.3943 24.1621 12.1161 23.8839C11.8379 23.6057 11.7069 23.2127 11.7626 22.8232L12.5959 16.9899C12.6342 16.7222 12.7582 16.474 12.9495 16.2828L27.9495 1.2828ZM15.0119 17.7559L14.4732 21.5269L18.2441 20.9882L32.0656 7.16669L28.8333 3.93445L15.0119 17.7559Z"
          fill="currentColor"/>
    <path fill-rule="evenodd" clip-rule="evenodd"
          d="M6.33334 8.41669C4.72251 8.41669 3.41667 9.72252 3.41667 11.3334V21.3334C3.41667 22.0237 2.85703 22.5834 2.16667 22.5834C1.47632 22.5834 0.916672 22.0237 0.916672 21.3334V11.3334C0.916672 8.34181 3.3418 5.91669 6.33334 5.91669H18.8333C19.5237 5.91669 20.0833 6.47633 20.0833 7.16669C20.0833 7.85704 19.5237 8.41669 18.8333 8.41669H6.33334ZM28.8333 15.9167C29.5237 15.9167 30.0833 16.4763 30.0833 17.1667V29.6667C30.0833 32.6582 27.6582 35.0834 24.6667 35.0834H6.33334C3.3418 35.0834 0.916672 32.6582 0.916672 29.6667V28C0.916672 27.3097 1.47632 26.75 2.16667 26.75C2.85703 26.75 3.41667 27.3097 3.41667 28V29.6667C3.41667 31.2775 4.72251 32.5834 6.33334 32.5834H24.6667C26.2775 32.5834 27.5833 31.2775 27.5833 29.6667V17.1667C27.5833 16.4763 28.143 15.9167 28.8333 15.9167Z"
          fill="currentColor"/>
</svg>
