<svg width="24" height="24" viewBox="0 0 24 24" fill="none" xmlns="http://www.w3.org/2000/svg">
<path fill-rule="evenodd" clip-rule="evenodd" d="M12 10.25C11.0335 10.25 10.25 11.0335 10.25 12C10.25 12.9665 11.0335 13.75 12 13.75C12.9665 13.75 13.75 12.9665 13.75 12C13.75 11.0335 12.9665 10.25 12 10.25ZM8.75 12C8.75 10.2051 10.2051 8.75 12 8.75C13.7949 8.75 15.25 10.2051 15.25 12C15.25 13.7949 13.7949 15.25 12 15.25C10.2051 15.25 8.75 13.7949 8.75 12Z" fill="#FEFEFE"/>
<path fill-rule="evenodd" clip-rule="evenodd" d="M4.05277 12C4.14958 12.0952 4.25894 12.2012 4.37968 12.3161C4.90896 12.8199 5.65237 13.49 6.51089 14.1581C7.37169 14.8281 8.33349 15.4845 9.29984 15.9706C10.2749 16.4611 11.1993 16.75 12 16.75C12.527 16.75 13.1128 16.6247 13.7395 16.3926C14.1279 16.2488 14.5595 16.447 14.7033 16.8355C14.8472 17.2239 14.6489 17.6554 14.2605 17.7993C13.523 18.0724 12.756 18.25 12 18.25C10.8677 18.25 9.70062 17.8514 8.62573 17.3106C7.54214 16.7655 6.49556 16.0469 5.58962 15.3419C4.68138 14.635 3.89966 13.9301 3.34551 13.4026C3.06799 13.1385 2.84646 12.9178 2.69347 12.7623C2.61696 12.6845 2.55751 12.6229 2.51672 12.5803L2.46968 12.5308L2.457 12.5174L2.45344 12.5136L2.45235 12.5124L2.45199 12.512C2.45186 12.5119 2.45174 12.5118 3 12C2.45174 11.4882 2.45186 11.4881 2.45199 11.488L2.45235 11.4876L2.45344 11.4864L2.457 11.4826L2.46968 11.4692L2.51672 11.4197C2.55751 11.3771 2.61696 11.3155 2.69347 11.2377C2.84646 11.0822 3.06799 10.8615 3.34551 10.5974C3.89966 10.0699 4.68138 9.36497 5.58962 8.65813C6.49556 7.95306 7.54214 7.23449 8.62573 6.68938C9.70062 6.14864 10.8677 5.75 12 5.75C13.1323 5.75 14.2994 6.14864 15.3743 6.68938C16.4579 7.23449 17.5044 7.95306 18.4104 8.65813C19.3186 9.36497 20.1003 10.0699 20.6545 10.5974C20.932 10.8615 21.1535 11.0822 21.3065 11.2377C21.383 11.3155 21.4425 11.3771 21.4833 11.4197L21.5303 11.4692L21.543 11.4826L21.5466 11.4864L21.5476 11.4876L21.548 11.488C21.5481 11.4881 21.5483 11.4882 21 12C21.5483 12.5118 21.5482 12.5118 21.5481 12.5119L21.548 12.5121L21.5475 12.5126L21.5461 12.5141L21.5413 12.5192L21.5243 12.5372C21.5096 12.5528 21.4882 12.5752 21.4606 12.6039C21.4053 12.6614 21.3248 12.7443 21.2216 12.8481C21.0153 13.0558 20.7176 13.348 20.3488 13.6897C19.6132 14.3714 18.5858 15.2587 17.4296 16.0667C17.0901 16.304 16.6226 16.2212 16.3853 15.8817C16.148 15.5421 16.2308 15.0746 16.5704 14.8373C17.6516 14.0816 18.6242 13.2429 19.3292 12.5895C19.5695 12.3669 19.7776 12.1667 19.9472 12C19.8504 11.9048 19.7411 11.7988 19.6203 11.6839C19.091 11.1801 18.3476 10.51 17.4891 9.84187C16.6283 9.17194 15.6665 8.51551 14.7002 8.02937C13.7251 7.53886 12.8007 7.25 12 7.25C11.1993 7.25 10.2749 7.53886 9.29984 8.02937C8.33349 8.51551 7.37169 9.17194 6.51089 9.84187C5.65237 10.51 4.90896 11.1801 4.37968 11.6839C4.25894 11.7988 4.14958 11.9048 4.05277 12ZM21 12L21.5483 12.5118C21.8172 12.2236 21.8172 11.7764 21.5483 11.4882L21 12ZM3 12L2.45174 12.5118C2.18275 12.2236 2.18275 11.7764 2.45174 11.4882L3 12Z" fill="#FEFEFE"/>
</svg>
