<svg viewBox="0 0 21 20" fill="none" xmlns="http://www.w3.org/2000/svg">
<path d="M20.5 9.9999C20.5 4.47705 16.0229 -9.91821e-05 10.5 -9.91821e-05C4.97715 -9.91821e-05 0.5 4.47705 0.5 9.9999C0.5 14.9912 4.15686 19.1282 8.9375 19.8784V12.8905H6.39844V9.9999H8.9375V7.79678C8.9375 5.29053 10.4304 3.90615 12.7146 3.90615C13.8087 3.90615 14.9531 4.10146 14.9531 4.10146V6.5624H13.6921C12.4499 6.5624 12.0625 7.33324 12.0625 8.12406V9.9999H14.8359L14.3926 12.8905H12.0625V19.8784C16.8431 19.1282 20.5 14.9912 20.5 9.9999Z" fill="#1877F2"/>
<path d="M14.3926 12.8906L14.8359 10H12.0625V8.12416C12.0625 7.33334 12.4499 6.5625 13.6921 6.5625H14.9531V4.10156C14.9531 4.10156 13.8087 3.90625 12.7146 3.90625C10.4304 3.90625 8.9375 5.29062 8.9375 7.79688V10H6.39844V12.8906H8.9375V19.8785C9.44662 19.9584 9.96844 20 10.5 20C11.0316 20 11.5534 19.9584 12.0625 19.8785V12.8906H14.3926Z" fill="white"/>
</svg>
