<svg viewBox="0 0 21 20" fill="none" xmlns="http://www.w3.org/2000/svg">
<g clip-path="url(#clip0_368_3935)">
<path d="M20.5 10C20.5 4.47717 16.0229 2.28882e-05 10.5 2.28882e-05C4.97715 2.28882e-05 0.5 4.47717 0.5 10C0.5 14.9913 4.15686 19.1283 8.9375 19.8785V12.8906H6.39844V10H8.9375V7.7969C8.9375 5.29065 10.4304 3.90627 12.7146 3.90627C13.8087 3.90627 14.9531 4.10159 14.9531 4.10159V6.56252H13.6921C12.4499 6.56252 12.0625 7.33336 12.0625 8.12418V10H14.8359L14.3926 12.8906H12.0625V19.8785C16.8431 19.1283 20.5 14.9913 20.5 10Z" fill="#1877F2"/>
<path d="M14.3926 12.8906L14.8359 10H12.0625V8.12416C12.0625 7.33334 12.4499 6.5625 13.6921 6.5625H14.9531V4.10156C14.9531 4.10156 13.8087 3.90625 12.7146 3.90625C10.4304 3.90625 8.9375 5.29062 8.9375 7.79688V10H6.39844V12.8906H8.9375V19.8785C9.44662 19.9584 9.96844 20 10.5 20C11.0316 20 11.5534 19.9584 12.0625 19.8785V12.8906H14.3926Z" fill="white"/>
</g>
<defs>
<clipPath id="clip0_368_3935">
<rect width="20" height="20" fill="white" transform="translate(0.5)"/>
</clipPath>
</defs>
</svg>
