<svg viewBox="0 0 20 20" fill="none" xmlns="http://www.w3.org/2000/svg">
<path fill-rule="evenodd" clip-rule="evenodd" d="M1.875 2.08337C1.875 1.7382 2.15482 1.45837 2.5 1.45837L17.5 1.45837C17.8452 1.45837 18.125 1.7382 18.125 2.08337L18.125 4.58337C18.125 4.76583 18.0453 4.93917 17.9067 5.05791L12.2917 9.87083L12.2917 11.6667C12.2917 12.0119 12.0118 12.2917 11.6667 12.2917C11.3215 12.2917 11.0417 12.0119 11.0417 11.6667L11.0417 9.58337C11.0417 9.40092 11.1214 9.22758 11.2599 9.10884L16.875 4.29591L16.875 2.70837L3.125 2.70837L3.125 4.30013L8.61515 9.11341C8.74795 9.22984 8.82529 9.39702 8.82805 9.57361L8.94273 16.9132L11.0417 15.8638L11.0417 15C11.0417 14.6549 11.3215 14.375 11.6667 14.375C12.0118 14.375 12.2917 14.6549 12.2917 15L12.2917 16.25C12.2917 16.4868 12.1579 16.7032 11.9462 16.8091L8.61284 18.4757C8.42065 18.5718 8.19257 18.5624 8.00891 18.4509C7.82525 18.3394 7.71177 18.1413 7.70841 17.9265L7.58253 9.87048L2.08798 5.05333C1.95262 4.93466 1.875 4.76339 1.875 4.58337L1.875 2.08337Z" fill="#FEFEFE"/>
</svg>
