<svg viewBox="0 0 17 16" fill="none" xmlns="http://www.w3.org/2000/svg">
<path d="M15.54 8.16663C15.54 7.64663 15.4933 7.14663 15.4067 6.66663H8.5V9.50329H12.4467C12.2767 10.42 11.76 11.1966 10.9833 11.7166V13.5566H13.3533C14.74 12.28 15.54 10.4 15.54 8.16663Z" fill="white"/>
<path d="M8.50011 15.3333C10.4801 15.3333 12.1401 14.6766 13.3534 13.5566L10.9834 11.7166C10.3268 12.1566 9.48678 12.4166 8.50011 12.4166C6.59011 12.4166 4.97344 11.1266 4.39678 9.39331H1.94678V11.2933C3.15344 13.69 5.63344 15.3333 8.50011 15.3333Z" fill="white"/>
<path d="M4.3965 9.39333C4.24984 8.95333 4.1665 8.48333 4.1665 8C4.1665 7.51667 4.24984 7.04666 4.3965 6.60667V4.70667H1.9465C1.43317 5.72857 1.16605 6.85641 1.1665 8C1.1665 9.18333 1.44984 10.3033 1.9465 11.2933L4.3965 9.39333Z" fill="white"/>
<path d="M8.50011 3.58329C9.57678 3.58329 10.5434 3.95329 11.3034 4.67996L13.4068 2.57663C12.1368 1.39329 10.4768 0.666626 8.50011 0.666626C5.63344 0.666626 3.15344 2.30996 1.94678 4.70663L4.39678 6.60663C4.97344 4.87329 6.59011 3.58329 8.50011 3.58329Z" fill="white"/>
</svg>
