<svg width="48" height="48" viewBox="0 0 24 24" fill="none" xmlns="http://www.w3.org/2000/svg">
    <path clip-rule="evenodd"
          d="M13 5.75C9.54822 5.75 6.75 8.54822 6.75 12C6.75 12.4142 6.41421 12.75 6 12.75C5.58579 12.75 5.25 12.4142 5.25 12C5.25 7.71979 8.71979 4.25 13 4.25C17.2802 4.25 20.75 7.71979 20.75 12C20.75 13.1873 20.4825 14.3141 20.0038 15.3218C19.8261 15.696 19.3787 15.8552 19.0045 15.6774C18.6304 15.4997 18.4712 15.0523 18.6489 14.6782C19.0341 13.8674 19.25 12.9599 19.25 12C19.25 8.54822 16.4518 5.75 13 5.75ZM6.61292 14.9652C6.96771 14.7514 7.42862 14.8657 7.64239 15.2205C8.73723 17.0375 10.7274 18.25 13 18.25C13.9599 18.25 14.8674 18.0341 15.6782 17.6489C15.8642 17.5606 16.0451 17.4633 16.2205 17.3576C16.5753 17.1438 17.0362 17.2581 17.25 17.6129C17.4638 17.9677 17.3495 18.4286 16.9947 18.6424C16.7772 18.7735 16.5527 18.8942 16.3218 19.0038C15.3141 19.4825 14.1873 19.75 13 19.75C10.18 19.75 7.71256 18.2433 6.35761 15.9947C6.14383 15.6399 6.25814 15.179 6.61292 14.9652Z"
          fill="currentColor"/>
    <path clip-rule="evenodd"
          d="M12.5 8.25C12.9142 8.25 13.25 8.58579 13.25 9V12.25H16.5C16.9142 12.25 17.25 12.5858 17.25 13C17.25 13.4142 16.9142 13.75 16.5 13.75H12.5C12.0858 13.75 11.75 13.4142 11.75 13V9C11.75 8.58579 12.0858 8.25 12.5 8.25Z"
          fill="currentColor"/>
    <path clip-rule="evenodd"
          d="M3.58399 8.37604C3.92864 8.14628 4.39429 8.23941 4.62406 8.58405L6.20803 10.96L8.58399 9.37604C8.92864 9.14628 9.39429 9.23941 9.62406 9.58405C9.85382 9.9287 9.76069 10.3944 9.41604 10.6241L6.41604 12.6241C6.0714 12.8539 5.60575 12.7608 5.37598 12.4161L3.37598 9.4161C3.14622 9.07146 3.23935 8.60581 3.58399 8.37604Z"
          fill="currentColor"/>
</svg>
