<svg width="48" height="48" viewBox="0 0 24 24" fill="none" xmlns="http://www.w3.org/2000/svg">
    <path fill-rule="evenodd"
          clip-rule="evenodd"
          d="M11.3066 4.16184C11.7265 3.88193 12.2735 3.88193 12.6934 4.16184L19.6934 8.82851C20.0411 9.06034 20.25 9.45063 20.25 9.86857V18.7982C20.25 19.4886 19.6904 20.0482 19 20.0482H15.75V15.7982C15.75 14.2794 14.5188 13.0482 13 13.0482H11C9.48122 13.0482 8.25 14.2794 8.25 15.7982V20.0482H5C4.30964 20.0482 3.75 19.4886 3.75 18.7982V14.7981C3.75 14.3839 3.41421 14.0481 3 14.0481C2.58579 14.0481 2.25 14.3839 2.25 14.7981V18.798C2.25 20.3168 3.48122 21.5482 5 21.5482H9C9.41421 21.5482 9.75 21.2124 9.75 20.7982V15.7982C9.75 15.1078 10.3096 14.5482 11 14.5482H13C13.6904 14.5482 14.25 15.1078 14.25 15.7982V20.7982C14.25 21.2124 14.5858 21.5482 15 21.5482H19C20.5188 21.5482 21.75 20.317 21.75 18.7982V9.86857C21.75 8.9491 21.2905 8.09046 20.5254 7.58043L13.5254 2.91377C12.6017 2.29795 11.3983 2.29795 10.4746 2.91377L3.41603 7.61947C2.68756 8.10511 2.25 8.92269 2.25 9.7982V10.7981C2.25 11.2123 2.58579 11.5481 3 11.5481C3.41421 11.5481 3.75 11.2123 3.75 10.7981V9.79831C3.75 9.42433 3.9369 9.07499 4.24808 8.86754L11.3066 4.16184Z"
          fill="currentColor"/>
</svg>
