<svg width="48" height="48" viewBox="0 0 24 24" fill="currentColor" xmlns="http://www.w3.org/2000/svg">
    <g clip-path="url(#clip0_383_6519)">
        <path d="M11.9998 10C12.5521 10 12.9998 10.4477 12.9998 11V17C12.9998 17.5522 12.5521 18 11.9998 18C11.4475 18 10.9998 17.5522 10.9998 17V11C10.9998 10.4477 11.4475 10 11.9998 10Z"
              fill="currentColor"/>
        <path d="M12 8.49809C12.8273 8.49809 13.498 7.82737 13.498 7.00001C13.498 6.17265 12.8273 5.50195 12 5.50195C11.1726 5.50195 10.5019 6.17265 10.5019 7.00001C10.5019 7.82737 11.1726 8.49809 12 8.49809Z"
              fill="currentColor"/>
        <path d="M0 12C0 5.37258 5.37258 0 12 0C18.6274 0 24 5.37258 24 12C24 18.6274 18.6274 24 12 24C5.37258 24 0 18.6274 0 12ZM12 2C6.47716 2 2 6.47716 2 12C2 17.5228 6.47716 22 12 22C17.5228 22 22 17.5228 22 12C22 6.47716 17.5228 2 12 2Z"
              fill="currentColor"/>
    </g>
    <defs>
        <clipPath id="clip0_383_6519">
            <rect width="48" height="48" fill="white"/>
        </clipPath>
    </defs>
</svg>
