<svg  viewBox="0 0 21 18" fill="none" xmlns="http://www.w3.org/2000/svg">
<g clip-path="url(#clip0_368_3940)">
<path d="M19.9698 16.7194C20.0148 16.7198 20.0595 16.7111 20.101 16.6938C20.1425 16.6764 20.18 16.6508 20.2111 16.6185C20.2422 16.5862 20.2662 16.5479 20.2818 16.506C20.2973 16.4642 20.304 16.4196 20.3014 16.375C20.3014 16.1308 20.1526 16.0141 19.8473 16.0141H19.354V17.2928H19.5395V16.7354H19.7675L19.7727 16.7422L20.1266 17.2928H20.325L19.9443 16.7229L19.9698 16.7194ZM19.7552 16.5913H19.54V16.159H19.8127C19.9536 16.159 20.1142 16.1818 20.1142 16.3644C20.1142 16.5745 19.9517 16.5913 19.7541 16.5913" fill="white"/>
<path d="M15.1298 15.117H12.4988V11.0372C12.4988 10.0644 12.4812 8.81204 11.1304 8.81204C9.76002 8.81204 9.55036 9.872 9.55036 10.9664V15.1167H6.91932V6.72714H9.44511V7.87366H9.48047C9.73324 7.44573 10.0985 7.09369 10.5374 6.85504C10.9762 6.61639 11.4722 6.50007 11.9726 6.51846C14.6392 6.51846 15.1309 8.2552 15.1309 10.5146L15.1298 15.117ZM3.95065 5.58034C3.64867 5.5804 3.35346 5.49179 3.10234 5.32571C2.85123 5.15964 2.6555 4.92357 2.53989 4.64735C2.42428 4.37112 2.39398 4.06716 2.45284 3.77389C2.5117 3.48063 2.65707 3.21123 2.87056 2.99976C3.08405 2.7883 3.35608 2.64427 3.65224 2.58588C3.94841 2.5275 4.2554 2.55738 4.53441 2.67175C4.81342 2.78613 5.05191 2.97985 5.21972 3.22844C5.38754 3.47702 5.47714 3.76929 5.4772 4.06829C5.47723 4.26682 5.43777 4.46341 5.36107 4.64684C5.28438 4.83028 5.17195 4.99695 5.0302 5.13736C4.88845 5.27777 4.72014 5.38915 4.53491 5.46516C4.34968 5.54117 4.15115 5.58031 3.95065 5.58034ZM5.26616 15.117H2.63239V6.72714H5.26616V15.117ZM16.4415 0.13755H1.31031C0.966875 0.133713 0.635935 0.265037 0.390239 0.502665C0.144543 0.740292 0.00419143 1.06478 0 1.40483V16.4491C0.00404797 16.7893 0.144318 17.114 0.390005 17.3519C0.635692 17.5898 0.966704 17.7214 1.31031 17.7177H16.4415C16.7857 17.722 17.1177 17.5908 17.3643 17.3529C17.611 17.1151 17.7522 16.79 17.757 16.4491V1.40375C17.7521 1.06302 17.6108 0.738163 17.3641 0.500542C17.1174 0.26292 16.7856 0.131971 16.4415 0.136464" fill="white"/>
<path d="M19.7777 15.4445C19.4576 15.4476 19.1517 15.576 18.927 15.8017C18.7023 16.0275 18.577 16.3322 18.5785 16.6491C18.5801 16.9661 18.7083 17.2695 18.9352 17.4931C19.1621 17.7167 19.4692 17.8422 19.7893 17.8422C20.1094 17.8422 20.4165 17.7167 20.6434 17.4931C20.8703 17.2695 20.9986 16.9661 21.0001 16.6491C21.0017 16.3322 20.8764 16.0275 20.6517 15.8017C20.4269 15.576 20.1211 15.4476 19.801 15.4445H19.7777ZM19.7777 17.705C19.5677 17.7084 19.3614 17.6502 19.1849 17.5376C19.0084 17.4249 18.8696 17.263 18.786 17.0723C18.7024 16.8815 18.6778 16.6705 18.7154 16.466C18.7529 16.2614 18.8509 16.0724 18.9969 15.923C19.1429 15.7735 19.3303 15.6703 19.5356 15.6263C19.7408 15.5824 19.9546 15.5997 20.1499 15.676C20.3453 15.7524 20.5133 15.8844 20.6329 16.0553C20.7524 16.2263 20.8181 16.4285 20.8216 16.6363C20.8216 16.6423 20.8216 16.648 20.8216 16.654C20.8275 16.9267 20.7237 17.1906 20.5331 17.3876C20.3426 17.5846 20.0808 17.6985 19.8053 17.7044H19.778" fill="white"/>
</g>
<defs>
<clipPath id="clip0_368_3940">
<rect width="21" height="17.7273" fill="white" transform="translate(0 0.136353)"/>
</clipPath>
</defs>
</svg>
