<svg viewBox="0 0 24 24" fill="none" xmlns="http://www.w3.org/2000/svg">
<path fill-rule="evenodd" clip-rule="evenodd" d="M5.63954 8.60298C6.06963 6.36649 8.0266 4.75 10.3041 4.75H13.6959C15.9734 4.75 17.9304 6.36648 18.3605 8.60297L18.6019 9.85836C18.6801 10.2651 18.4138 10.6583 18.007 10.7365C17.6003 10.8147 17.2071 10.5484 17.1289 10.1416L16.8875 8.88625C16.5932 7.35601 15.2542 6.25 13.6959 6.25H10.3041C8.7458 6.25 7.40682 7.35602 7.11255 8.88625L5.40798 17.75H18.592L17.8981 14.1416C17.8199 13.7349 18.0862 13.3417 18.493 13.2635C18.8997 13.1853 19.2929 13.4516 19.3711 13.8584L20.2365 18.3584C20.2788 18.5781 20.2207 18.8051 20.0782 18.9776C19.9358 19.1501 19.7237 19.25 19.5 19.25H4.50001C4.27628 19.25 4.06424 19.1501 3.92176 18.9776C3.77929 18.8051 3.72125 18.5781 3.7635 18.3584L5.63954 8.60298Z" fill="#999999"/>
<path fill-rule="evenodd" clip-rule="evenodd" d="M1.25 18.5C1.25 18.0858 1.58579 17.75 2 17.75H22C22.4142 17.75 22.75 18.0858 22.75 18.5C22.75 18.9142 22.4142 19.25 22 19.25H2C1.58579 19.25 1.25 18.9142 1.25 18.5Z" fill="#999999"/>
<path fill-rule="evenodd" clip-rule="evenodd" d="M8.25 18.5C8.25 18.0858 8.58579 17.75 9 17.75H15C15.4142 17.75 15.75 18.0858 15.75 18.5V19.5C15.75 21.0188 14.5188 22.25 13 22.25H11C9.48122 22.25 8.25 21.0188 8.25 19.5V18.5ZM9.75 19.25V19.5C9.75 20.1904 10.3096 20.75 11 20.75H13C13.6904 20.75 14.25 20.1904 14.25 19.5V19.25H9.75Z" fill="#999999"/>
<path fill-rule="evenodd" clip-rule="evenodd" d="M9.25 5.5C9.25 5.91421 9.58579 6.25 10 6.25H14C14.4142 6.25 14.75 5.91421 14.75 5.5V4.5C14.75 2.98122 13.5188 1.75 12 1.75C10.4812 1.75 9.25 2.98122 9.25 4.5V5.5ZM10.75 4.75V4.5C10.75 3.80964 11.3096 3.25 12 3.25C12.6904 3.25 13.25 3.80964 13.25 4.5V4.75H10.75Z" fill="#999999"/>
</svg>
