<svg width="48" height="50" viewBox="0 0 24 25" fill="none" xmlns="http://www.w3.org/2000/svg">
    <g clip-path="url(#clip0_383_6527)">
        <path d="M11.9951 0.970581C5.36076 0.970581 0 6.3412 0 12.9656C0 18.05 3.15919 22.3939 7.62156 24.1413C7.51296 23.1935 7.42411 21.7324 7.66104 20.6958C7.87824 19.7579 9.06293 14.7328 9.06293 14.7328C9.06293 14.7328 8.70754 14.0121 8.70754 12.9558C8.70754 11.2873 9.67502 10.0434 10.8795 10.0434C11.9062 10.0434 12.3998 10.8134 12.3998 11.7316C12.3998 12.7583 11.7482 14.2984 11.4027 15.7299C11.1164 16.9245 12.0049 17.9019 13.1798 17.9019C15.3122 17.9019 16.9511 15.6509 16.9511 12.4128C16.9511 9.5399 14.8877 7.53578 11.9358 7.53578C8.51995 7.53578 6.51583 10.0927 6.51583 12.7386C6.51583 13.7653 6.91073 14.871 7.40436 15.4733C7.5031 15.5917 7.51296 15.7003 7.48334 15.8188C7.3945 16.1939 7.18716 17.0134 7.14768 17.1812C7.09831 17.3984 6.96996 17.4478 6.7429 17.3392C5.26202 16.6283 4.33402 14.4366 4.33402 12.6793C4.33402 8.89819 7.07856 5.42306 12.2616 5.42306C16.4179 5.42306 19.6561 8.38481 19.6561 12.3535C19.6561 16.4901 17.0498 19.8172 13.4364 19.8172C12.2221 19.8172 11.0769 19.1853 10.6919 18.435C10.6919 18.435 10.0897 20.7254 9.94159 21.2881C9.67502 22.3346 8.94446 23.6378 8.45083 24.4375C9.57631 24.783 10.761 24.9706 12.0049 24.9706C18.6294 24.9706 24 19.6 24 12.9755C23.9901 6.3412 18.6195 0.970581 11.9951 0.970581Z"
              fill="currentColor"/>
    </g>
    <defs>
        <clipPath id="clip0_383_6527">
            <rect y="0.970581" width="48" height="48" rx="6" fill="white"/>
        </clipPath>
    </defs>
</svg>
