<svg width="17" height="21" viewBox="0 0 17 21" fill="none" xmlns="http://www.w3.org/2000/svg">
<g clip-path="url(#clip0_383_6528)">
<path d="M16.5 10.7204C16.5006 10.9751 16.4353 11.2256 16.3105 11.4475C16.1856 11.6695 16.0055 11.8553 15.7875 11.987L2.28 20.2501C2.05227 20.3896 1.79144 20.4657 1.52445 20.4706C1.25746 20.4756 0.993989 20.4092 0.76125 20.2783C0.530728 20.1494 0.338696 19.9614 0.204904 19.7337C0.0711107 19.506 0.000385179 19.2467 0 18.9826V2.45825C0.000385179 2.19414 0.0711107 1.9349 0.204904 1.70719C0.338696 1.47948 0.530728 1.29152 0.76125 1.16263C0.993989 1.0317 1.25746 0.965284 1.52445 0.970228C1.79144 0.975172 2.05227 1.0513 2.28 1.19075L15.7875 9.45388C16.0055 9.58557 16.1856 9.77143 16.3105 9.99337C16.4353 10.2153 16.5006 10.4658 16.5 10.7204Z" fill="#FEFEFE"/>
</g>
<defs>
<clipPath id="clip0_383_6528">
<rect width="16.5" height="19.5009" fill="white" transform="translate(0 0.969971)"/>
</clipPath>
</defs>
</svg>
