<svg width="24" height="18" viewBox="0 0 24 18" fill="none" xmlns="http://www.w3.org/2000/svg">
<g clip-path="url(#clip0_386_1171)">
<path d="M20.6943 5.17228V5.16559C20.6943 3.26121 19.1505 1.7174 17.2461 1.7174H8.92135L7.00857 0.18865C6.85577 0.0665328 6.66598 0 6.47036 0H3.44818C1.5438 0 0 1.5438 0 3.44818V13.7927C0 15.6972 1.5438 17.2409 3.44818 17.2409H19.3966C20.5455 17.2409 21.5565 16.483 21.8789 15.3803L23.8945 8.48391C24.3783 6.82847 23.137 5.17228 21.4122 5.17228H20.6943ZM3.44818 1.72409H6.16822L8.08098 3.25284C8.23378 3.37496 8.42357 3.44149 8.61919 3.44149H17.2461C18.1983 3.44149 18.9702 4.21339 18.9702 5.16559V5.17228H5.60309C4.45371 5.17228 3.44224 5.93088 3.1204 7.0343L1.72409 11.8217V3.44818C1.72409 2.496 2.496 1.72409 3.44818 1.72409ZM4.77553 7.51704C4.88282 7.14924 5.21996 6.89637 5.60309 6.89637H21.4122C21.9872 6.89637 22.401 7.44844 22.2396 8.00025L20.2239 14.8967C20.1165 15.2642 19.7795 15.5168 19.3966 15.5168H3.59166C3.01695 15.5168 2.60317 14.9651 2.7641 14.4134L4.77553 7.51704Z" fill="#FEFEFE"/>
</g>
<defs>
<clipPath id="clip0_386_1171">
<rect width="24" height="17.2409" fill="white"/>
</clipPath>
</defs>
</svg>
