<svg width="48" height="48" viewBox="0 0 24 24" fill="none" xmlns="http://www.w3.org/2000/svg">
    <path fill-rule="evenodd" clip-rule="evenodd"
          d="M2.25 6C2.25 5.58579 2.58579 5.25 3 5.25H6.5C6.91421 5.25 7.25 5.58579 7.25 6C7.25 6.41421 6.91421 6.75 6.5 6.75H3C2.58579 6.75 2.25 6.41421 2.25 6ZM10.75 6C10.75 5.58579 11.0858 5.25 11.5 5.25H21C21.4142 5.25 21.75 5.58579 21.75 6C21.75 6.41421 21.4142 6.75 21 6.75H11.5C11.0858 6.75 10.75 6.41421 10.75 6Z"
          fill="currentColor"/>
    <path fill-rule="evenodd" clip-rule="evenodd"
          d="M9 4.25C8.0335 4.25 7.25 5.0335 7.25 6C7.25 6.9665 8.0335 7.75 9 7.75C9.9665 7.75 10.75 6.9665 10.75 6C10.75 5.0335 9.9665 4.25 9 4.25ZM5.75 6C5.75 4.20507 7.20507 2.75 9 2.75C10.7949 2.75 12.25 4.20507 12.25 6C12.25 7.79493 10.7949 9.25 9 9.25C7.20507 9.25 5.75 7.79493 5.75 6Z"
          fill="currentColor"/>
    <path fill-rule="evenodd" clip-rule="evenodd"
          d="M21.75 12C21.75 11.5858 21.4142 11.25 21 11.25H19C18.5858 11.25 18.25 11.5858 18.25 12C18.25 12.4142 18.5858 12.75 19 12.75H21C21.4142 12.75 21.75 12.4142 21.75 12ZM14.75 12C14.75 11.5858 14.4142 11.25 14 11.25H9C8.58579 11.25 8.25 11.5858 8.25 12C8.25 12.4142 8.58579 12.75 9 12.75H14C14.4142 12.75 14.75 12.4142 14.75 12ZM5.75 12C5.75 11.5858 5.41421 11.25 5 11.25H3C2.58579 11.25 2.25 11.5858 2.25 12C2.25 12.4142 2.58579 12.75 3 12.75H5C5.41421 12.75 5.75 12.4142 5.75 12Z"
          fill="currentColor"/>
    <path fill-rule="evenodd" clip-rule="evenodd"
          d="M16.5 10.25C17.4665 10.25 18.25 11.0335 18.25 12C18.25 12.9665 17.4665 13.75 16.5 13.75C15.5335 13.75 14.75 12.9665 14.75 12C14.75 11.0335 15.5335 10.25 16.5 10.25ZM19.75 12C19.75 10.2051 18.2949 8.75 16.5 8.75C14.7051 8.75 13.25 10.2051 13.25 12C13.25 13.7949 14.7051 15.25 16.5 15.25C18.2949 15.25 19.75 13.7949 19.75 12Z"
          fill="currentColor"/>
    <path fill-rule="evenodd" clip-rule="evenodd"
          d="M2.25 18C2.25 17.5858 2.58579 17.25 3 17.25H8C8.41421 17.25 8.75 17.5858 8.75 18C8.75 18.4142 8.41421 18.75 8 18.75H3C2.58579 18.75 2.25 18.4142 2.25 18ZM12.25 18C12.25 17.5858 12.5858 17.25 13 17.25H21C21.4142 17.25 21.75 17.5858 21.75 18C21.75 18.4142 21.4142 18.75 21 18.75H13C12.5858 18.75 12.25 18.4142 12.25 18Z"
          fill="currentColor"/>
    <path fill-rule="evenodd" clip-rule="evenodd"
          d="M10.5 16.25C9.5335 16.25 8.75 17.0335 8.75 18C8.75 18.9665 9.5335 19.75 10.5 19.75C11.4665 19.75 12.25 18.9665 12.25 18C12.25 17.0335 11.4665 16.25 10.5 16.25ZM7.25 18C7.25 16.2051 8.70507 14.75 10.5 14.75C12.2949 14.75 13.75 16.2051 13.75 18C13.75 19.7949 12.2949 21.25 10.5 21.25C8.70507 21.25 7.25 19.7949 7.25 18Z"
          fill="currentColor"/>
</svg>
