<svg width="48" height="48" viewBox="0 0 24 24" fill="none" xmlns="http://www.w3.org/2000/svg">
    <circle cx="12" cy="12" r="11.625" fill="currentColor" stroke="currentColor" stroke-width="0.75"/>
    <path d="M11.288 5.15072C11.515 4.465 12.485 4.465 12.712 5.15073L13.8504 8.58939C13.952 8.8964 14.239 9.10368 14.5624 9.10368H18.216C18.9459 9.10368 19.2457 10.0405 18.6514 10.4643L15.7199 12.5548C15.4521 12.7457 15.3399 13.0889 15.4433 13.4011L16.5687 16.8007C16.7967 17.4892 16.0118 18.0681 15.4213 17.647L12.4354 15.5179C12.1749 15.3321 11.8251 15.3321 11.5646 15.5179L8.57872 17.647C7.98821 18.0681 7.20334 17.4892 7.43128 16.8007L8.5567 13.4011C8.66007 13.0889 8.54794 12.7457 8.28015 12.5548L5.3486 10.4643C4.75429 10.0405 5.05411 9.10368 5.78404 9.10368H9.43763C9.76102 9.10368 10.048 8.8964 10.1496 8.58939L11.288 5.15072Z"
          fill="#1D1D1D"/>
</svg>
