<svg width="9" height="9" viewBox="0 0 9 9" fill="none" xmlns="http://www.w3.org/2000/svg">
<path d="M4.14336 1.59749C4.25562 1.25202 4.74438 1.25202 4.85664 1.59749L5.42621 3.3502C5.47641 3.5047 5.62039 3.6093 5.78283 3.60931L7.62577 3.60938C7.98903 3.60939 8.14006 4.07422 7.84619 4.28775L6.35526 5.37106C6.22384 5.46655 6.16885 5.6358 6.21904 5.7903L6.78847 7.54306C6.90071 7.88854 6.50531 8.17582 6.21142 7.96232L4.72041 6.87912C4.58898 6.78364 4.41102 6.78364 4.27959 6.87912L2.78858 7.96232C2.4947 8.17582 2.09929 7.88854 2.21152 7.54306L2.78096 5.7903C2.83115 5.6358 2.77616 5.46655 2.64474 5.37106L1.15381 4.28775C0.85994 4.07423 1.01097 3.60939 1.37423 3.60938L3.21717 3.60931C3.37961 3.6093 3.52359 3.5047 3.57379 3.3502L4.14336 1.59749Z" fill="#FF8000" stroke="#FF8000" stroke-width="0.75"/>
</svg>
