<svg width="24" height="24" viewBox="0 0 24 24" fill="none" xmlns="http://www.w3.org/2000/svg">
<path fill-rule="evenodd" clip-rule="evenodd" d="M2 1.25C2.41421 1.25 2.75 1.58579 2.75 2V4C2.75 4.41421 2.41421 4.75 2 4.75C1.58579 4.75 1.25 4.41421 1.25 4V2C1.25 1.58579 1.58579 1.25 2 1.25ZM2 7.25C2.41421 7.25 2.75 7.58579 2.75 8V21.25H22C22.4142 21.25 22.75 21.5858 22.75 22C22.75 22.4142 22.4142 22.75 22 22.75H2C1.58579 22.75 1.25 22.4142 1.25 22V8C1.25 7.58579 1.58579 7.25 2 7.25Z" fill="#FEFEFE"/>
<path fill-rule="evenodd" clip-rule="evenodd" d="M22.5303 5.46967C22.8232 5.76256 22.8232 6.23744 22.5303 6.53033L16.5303 12.5303C16.2374 12.8232 15.7626 12.8232 15.4697 12.5303L14 11.0607L9.53033 15.5303C9.23744 15.8232 8.76256 15.8232 8.46967 15.5303L6 13.0607L2.53033 16.5303C2.23744 16.8232 1.76256 16.8232 1.46967 16.5303C1.17678 16.2374 1.17678 15.7626 1.46967 15.4697L5.46967 11.4697C5.76256 11.1768 6.23744 11.1768 6.53033 11.4697L9 13.9393L13.4697 9.46967C13.7626 9.17678 14.2374 9.17678 14.5303 9.46967L16 10.9393L21.4697 5.46967C21.7626 5.17678 22.2374 5.17678 22.5303 5.46967Z" fill="#FEFEFE"/>
</svg>
