<svg width="48" height="50" viewBox="0 0 24 25" fill="none" xmlns="http://www.w3.org/2000/svg">
    <g clip-path="url(#clip0_383_6537)">
        <path d="M17.2401 0.970581H13.0968V17.3184C13.0968 19.2662 11.5032 20.8662 9.52006 20.8662C7.53692 20.8662 5.94333 19.2662 5.94333 17.3184C5.94333 15.4054 7.50151 13.8401 9.41384 13.7706V9.66625C5.19965 9.73578 1.79999 13.1097 1.79999 17.3184C1.79999 21.5619 5.27047 24.9706 9.55549 24.9706C13.8404 24.9706 17.3109 21.5271 17.3109 17.3184V8.93578C18.8691 10.0488 20.7814 10.7097 22.8 10.7445V6.64015C19.6837 6.5358 17.2401 4.03145 17.2401 0.970581Z"
              fill="currentColor"/>
    </g>
    <defs>
        <clipPath id="clip0_383_6537">
            <rect y="0.970581" width="24" height="24" rx="6" fill="white"/>
        </clipPath>
    </defs>
</svg>
